<svg id="Layer_1" data-name="Layer 1" xmlns="http://www.w3.org/2000/svg" viewBox="0 0 300 82"><defs><style>.cls-1{fill:#1d1d1b;}.cls-2{fill:#fff;}.cls-3{fill:#eb6625;}</style></defs><path class="cls-1" d="M161.349,37.473a8.836,8.836,0,0,0,3.787-7.567V27.828c0-3.99-1.39-7.027-4.124-9.024-2.584-1.891-6.4-2.85-11.339-2.85H117.016a3.145,3.145,0,0,0-3.329,3.447V55.775a3.17,3.17,0,0,0,3.329,3.5h34.028c12.695,0,15.36-6.143,15.36-11.3V46.013a9.4,9.4,0,0,0-5.055-8.54m-38.607-13.78h27.051c6.367,0,6.367,2.366,6.367,3.139v4.1c0,1.927-2.333,2.9-6.934,2.9H122.742Zm34.792,25.152c0,1.736-2.178,2.614-6.485,2.614H122.441V41.73h26.905c3.734,0,8.188.565,8.188,3.248Z"/><path class="cls-1" d="M190.429,23.694h26.9c2.264,0,3.616-1.435,3.616-3.841,0-2.44-1.352-3.9-3.616-3.9H190.26c-5.519,0-9.589.85-12.441,2.6a9.248,9.248,0,0,0-4.6,8.412V47.688c0,7.691,5.847,11.586,17.389,11.586h26.722c2.264,0,3.616-1.458,3.616-3.907s-1.352-3.907-3.616-3.907H191.4c-3.393,0-5.921-.406-7.525-1.2a2.851,2.851,0,0,1-1.908-2.743V26.948c0-2.689,4.6-3.254,8.464-3.254"/><path class="cls-1" d="M244.28,23.694h26.9c2.264,0,3.611-1.435,3.611-3.841,0-2.44-1.347-3.9-3.611-3.9H244.109c-5.519,0-9.586.85-12.443,2.6a9.249,9.249,0,0,0-4.6,8.412V47.688c0,7.691,5.848,11.586,17.386,11.586h26.726c2.264,0,3.611-1.458,3.611-3.907s-1.347-3.907-3.611-3.907H245.247c-3.387,0-5.922-.406-7.526-1.2a2.847,2.847,0,0,1-1.905-2.743V26.948c0-2.689,4.6-3.254,8.464-3.254"/><rect class="cls-2" x="29.839" y="7.337" width="64.036" height="66.872"/><path class="cls-3" d="M89.776,3h-54.5A10.159,10.159,0,0,0,25.213,13.251v55.5A10.16,10.16,0,0,0,35.278,79h54.5A10.159,10.159,0,0,0,99.84,68.749v-55.5A10.159,10.159,0,0,0,89.776,3M32.583,13.548a3.054,3.054,0,0,1,3.023-3.082H39.14a3.058,3.058,0,0,1,3.028,3.082v1.4a3.059,3.059,0,0,1-3.028,3.084H35.606a3.055,3.055,0,0,1-3.023-3.084ZM77.448,68.454a3.056,3.056,0,0,1-3.029,3.082H35.606a3.055,3.055,0,0,1-3.023-3.082v-1.4a3.056,3.056,0,0,1,3.023-3.084H74.419a3.057,3.057,0,0,1,3.029,3.084Zm15.023,0a3.053,3.053,0,0,1-3.024,3.082H85.916a3.055,3.055,0,0,1-3.025-3.082v-1.4a3.056,3.056,0,0,1,3.025-3.084h3.531a3.057,3.057,0,0,1,3.024,3.084Zm0-26.73a3.052,3.052,0,0,1-3.024,3.08H35.709a3.054,3.054,0,0,1-3.026-3.08V40.318a3.053,3.053,0,0,1,3.026-3.083H89.447a3.054,3.054,0,0,1,3.024,3.083Zm0-26.774a3.053,3.053,0,0,1-3.024,3.084H50.635a3.055,3.055,0,0,1-3.028-3.084v-1.4a3.054,3.054,0,0,1,3.028-3.082H89.447a3.054,3.054,0,0,1,3.024,3.082Z"/><path class="cls-1" d="M115.137,69.089l.956,3.613c.2.794.386,1.539.529,2.272h.036c.159-.718.394-1.491.638-2.262l1.163-3.623h1.089l1.108,3.56c.254.845.464,1.6.629,2.325h.034c.129-.722.321-1.471.553-2.313l1.016-3.572h1.277l-2.3,7.119h-1.177l-1.082-3.4a21.656,21.656,0,0,1-.631-2.347h-.03a20.629,20.629,0,0,1-.652,2.358l-1.144,3.386h-1.184l-2.146-7.119Z"/><path class="cls-1" d="M126.144,69.089,127.1,72.7c.205.794.386,1.539.53,2.272h.035c.159-.718.394-1.491.638-2.262l1.163-3.623h1.089l1.108,3.56c.254.845.464,1.6.629,2.325h.034c.13-.722.322-1.471.553-2.313l1.017-3.572h1.276l-2.3,7.119H131.7l-1.082-3.4a21.432,21.432,0,0,1-.632-2.347h-.029a21.048,21.048,0,0,1-.652,2.358l-1.145,3.386h-1.184l-2.146-7.119Z"/><path class="cls-1" d="M137.151,69.089l.957,3.613c.2.794.385,1.539.529,2.272h.035c.159-.718.4-1.491.638-2.262l1.164-3.623h1.089l1.107,3.56c.254.845.464,1.6.629,2.325h.035c.129-.722.321-1.471.552-2.313l1.017-3.572h1.276l-2.3,7.119H142.7l-1.082-3.4a21.659,21.659,0,0,1-.632-2.347h-.029a21.048,21.048,0,0,1-.652,2.358l-1.144,3.386h-1.184l-2.147-7.119Z"/><path class="cls-1" d="M146.6,75.447a.873.873,0,0,1,.878-.934.93.93,0,1,1-.878.934Z"/><path class="cls-1" d="M149.887,76.208c.035-.489.059-1.2.059-1.836V65.757h1.287v4.475h.03a2.633,2.633,0,0,1,2.427-1.3c1.769,0,3.012,1.47,3,3.626,0,2.553-1.618,3.817-3.206,3.817a2.567,2.567,0,0,1-2.385-1.332h-.035L151,76.208Zm1.346-2.853a2.062,2.062,0,0,0,.054.469,2,2,0,0,0,1.941,1.515c1.363,0,2.163-1.1,2.163-2.737,0-1.431-.74-2.656-2.125-2.656a2.063,2.063,0,0,0-1.959,1.592,2.137,2.137,0,0,0-.074.538Z"/><path class="cls-1" d="M163.412,75.95a4.9,4.9,0,0,1-2.042.413,3.392,3.392,0,0,1-3.552-3.638,3.626,3.626,0,0,1,3.824-3.8,4.172,4.172,0,0,1,1.8.38l-.288.994a3.148,3.148,0,0,0-1.514-.342,2.471,2.471,0,0,0-2.512,2.7,2.444,2.444,0,0,0,2.48,2.664,3.749,3.749,0,0,0,1.585-.343Z"/><path class="cls-1" d="M169.917,75.95a4.9,4.9,0,0,1-2.043.413,3.392,3.392,0,0,1-3.552-3.638,3.627,3.627,0,0,1,3.825-3.8,4.17,4.17,0,0,1,1.8.38l-.288.994a3.145,3.145,0,0,0-1.514-.342,2.471,2.471,0,0,0-2.511,2.7,2.444,2.444,0,0,0,2.48,2.664,3.753,3.753,0,0,0,1.585-.343Z"/><path class="cls-1" d="M171.434,65.757h1.288V70.2h.029a2.552,2.552,0,0,1,.931-.914,2.6,2.6,0,0,1,1.326-.36c.96,0,2.481.586,2.481,3.042v4.239H176.2v-4.1c0-1.149-.435-2.114-1.646-2.114a1.885,1.885,0,0,0-1.747,1.293,1.762,1.762,0,0,0-.086.616v4.3h-1.288Z"/><path class="cls-1" d="M185.554,74.26c0,.746.024,1.385.058,1.948h-1.144l-.069-1.164h-.036a2.657,2.657,0,0,1-2.356,1.326c-1.114,0-2.452-.625-2.452-3.12V69.089h1.288v3.934c0,1.355.423,2.279,1.591,2.279a1.883,1.883,0,0,0,1.713-1.188,2,2,0,0,0,.118-.665v-4.36h1.289Z"/><path class="cls-1" d="M187.648,76.208c.034-.489.059-1.2.059-1.836V65.757h1.287v4.475h.029a2.633,2.633,0,0,1,2.427-1.3c1.769,0,3.012,1.47,3.005,3.626,0,2.553-1.617,3.817-3.205,3.817a2.566,2.566,0,0,1-2.385-1.332h-.035l-.065,1.17Zm1.346-2.853a1.974,1.974,0,0,0,2,1.984c1.362,0,2.162-1.1,2.162-2.737,0-1.431-.739-2.656-2.124-2.656a2.062,2.062,0,0,0-1.959,1.592,2.137,2.137,0,0,0-.074.538Z"/><path class="cls-1" d="M195.422,75.447a.873.873,0,0,1,.878-.934.93.93,0,1,1-.878.934Z"/><path class="cls-1" d="M203.851,75.95a4.9,4.9,0,0,1-2.042.413,3.393,3.393,0,0,1-3.553-3.638,3.627,3.627,0,0,1,3.825-3.8,4.163,4.163,0,0,1,1.8.38l-.287.994a3.148,3.148,0,0,0-1.514-.342,2.471,2.471,0,0,0-2.512,2.7,2.444,2.444,0,0,0,2.48,2.664,3.745,3.745,0,0,0,1.585-.343Z"/><path class="cls-1" d="M211.724,72.58a3.488,3.488,0,0,1-3.541,3.79,3.388,3.388,0,0,1-3.422-3.668,3.477,3.477,0,0,1,3.535-3.775A3.367,3.367,0,0,1,211.724,72.58Zm-5.645.083c0,1.562.894,2.737,2.158,2.737,1.241,0,2.169-1.16,2.169-2.775,0-1.2-.607-2.727-2.146-2.727C206.739,69.9,206.079,71.313,206.079,72.663Z"/><path class="cls-1" d="M213.358,71.012c0-.743-.024-1.333-.059-1.923h1.125l.069,1.147h.036a2.456,2.456,0,0,1,2.247-1.309,2.1,2.1,0,0,1,2.007,1.428h.029a2.868,2.868,0,0,1,.8-.927,2.424,2.424,0,0,1,1.566-.5c.95,0,2.35.613,2.35,3.089v4.192h-1.264V72.182c0-1.379-.508-2.2-1.545-2.2a1.689,1.689,0,0,0-1.54,1.165,2.126,2.126,0,0,0-.106.649v4.407h-1.264V71.936c0-1.134-.5-1.949-1.479-1.949a1.79,1.79,0,0,0-1.614,1.292,2.049,2.049,0,0,0-.1.637v4.292h-1.264Z"/></svg>